Coordinates
version=1
nRows=16
nColumns=40
inDegrees=yes

Units are S.I. units (second, meters, Newtons, ...)
If the header above contains a line with 'inDegrees', this indicates whether rotational values are in degrees (yes) or radians (no).

endheader
time	pelvis_tilt	pelvis_list	pelvis_rotation	pelvis_tx	pelvis_ty	pelvis_tz	hip_flexion_r	hip_adduction_r	hip_rotation_r	knee_angle_r	knee_angle_r_beta	ankle_angle_r	subtalar_angle_r	mtp_angle_r	hip_flexion_l	hip_adduction_l	hip_rotation_l	knee_angle_l	knee_angle_l_beta	ankle_angle_l	subtalar_angle_l	mtp_angle_l	lumbar_extension	lumbar_bending	lumbar_rotation	arm_flex_r	arm_add_r	arm_rot_r	elbow_flex_r	pro_sup_r	wrist_flex_r	wrist_dev_r	arm_flex_l	arm_add_l	arm_rot_l	elbow_flex_l	pro_sup_l	wrist_flex_l	wrist_dev_l
      7.70000000	      6.61798487	     -2.71712399	    179.63834452	      0.36722426	      0.71766994	     -0.61901129	     63.73686124	     -4.21797788	      9.18490341	     74.64362706	      1.30277706	     27.91493038	      0.00000000	      0.00000000	     63.89469086	    -13.72641063	     -7.87558855	     77.63956104	      1.35506597	     19.54413136	      0.00000000	      0.00000000	    -64.84445706	     -1.61191995	     -4.30680373	     60.87385321	      1.05235817	     33.79853171	      2.74006408	      8.71746087	      0.00000000	      0.00000000	     68.42129489	     -9.92421713	     84.61448167	      3.20750788	     85.45046405	      0.00000000	      0.00000000
      7.70500000	      6.66554785	     -2.69569004	    179.62942097	      0.36686724	      0.71804236	     -0.61915106	     63.72289003	     -4.21278690	      9.14418752	     74.57431076	      1.30156726	     27.87454751	      0.00000000	      0.00000000	     63.88836664	    -13.78691562	     -7.93154302	     77.59815005	      1.35434321	     19.50990898	      0.00000000	      0.00000000	    -64.83762932	     -1.59927317	     -4.27947860	     60.86485281	      1.05906032	     33.76155934	      2.74405702	      8.68907775	      0.00000000	      0.00000000	     68.41540725	     -9.93503864	     84.58365649	      3.21782789	     85.43730823	      0.00000000	      0.00000000
      7.71000000	      6.72355683	     -2.67321920	    179.64004582	      0.36652327	      0.71841156	     -0.61931330	     63.70372917	     -4.20958961	      9.12998851	     74.50217226	      1.30030821	     27.81729152	      0.00000000	      0.00000000	     63.87621904	    -13.76882504	     -7.86224044	     77.52362300	      1.35304247	     19.46376740	      0.00000000	      0.00000000	    -64.82662381	     -1.57792777	     -4.27443512	     60.86947805	      1.06464750	     33.70233322	      2.76480001	      8.65485621	      0.00000000	      0.00000000	     68.41644646	     -9.95306329	     84.54584730	      3.22668016	     85.42310251	      0.00000000	      0.00000000
      7.71500000	      6.77707196	     -2.66153506	    179.60604289	      0.36615520	      0.71874060	     -0.61965368	     63.71868841	     -4.13279461	      9.16622172	     74.47146692	      1.29977230	     27.79088768	      0.00000000	      0.00000000	     63.86990583	    -13.90480835	     -8.00718347	     77.47057862	      1.35211667	     19.46196361	      0.00000000	      0.00000000	    -64.81937815	     -1.62318771	     -4.25251499	     60.84836604	      1.09251477	     33.67472115	      2.77446461	      8.64265515	      0.00000000	      0.00000000	     68.43477348	     -9.96306218	     84.53107474	      3.23058453	     85.41692510	      0.00000000	      0.00000000
      7.72000000	      6.77957685	     -2.62085811	    179.63865091	      0.36589024	      0.71920136	     -0.61950563	     63.65123688	     -4.20550552	      9.03234078	     74.38557836	      1.29827326	     27.72442579	      0.00000000	      0.00000000	     63.81359573	    -13.83942044	     -7.89743948	     77.39388285	      1.35077808	     19.43254659	      0.00000000	      0.00000000	    -64.86679446	     -1.54096133	     -4.25817443	     60.89304008	      1.07846876	     33.62316525	      2.80083548	      8.62026615	      0.00000000	      0.00000000	     68.43405538	     -9.97426932	     84.52081593	      3.23113689	     85.41129111	      0.00000000	      0.00000000
      7.72500000	      6.79661574	     -2.59105634	    179.60969216	      0.36555150	      0.71953472	     -0.61973882	     63.60108658	     -4.13543918	      9.06381344	     74.34373214	      1.29754290	     27.69129088	      0.00000000	      0.00000000	     63.77950253	    -13.91486543	     -7.93244401	     77.34773816	      1.34997270	     19.43315367	      0.00000000	      0.00000000	    -64.89060249	     -1.55734919	     -4.23422579	     60.89254038	      1.09932771	     33.59023656	      2.81426009	      8.60822166	      0.00000000	      0.00000000	     68.45287813	     -9.99341572	     84.51411014	      3.22585946	     85.40672221	      0.00000000	      0.00000000
      7.73000000	      6.81518377	     -2.51906787	    179.63835061	      0.36522281	      0.72004506	     -0.61962936	     63.52221894	     -4.16904331	      8.90782216	     74.22417531	      1.29545624	     27.64491605	      0.00000000	      0.00000000	     63.73436924	    -13.89000601	     -7.81909956	     77.25580666	      1.34836819	     19.42285374	      0.00000000	      0.00000000	    -64.93801997	     -1.46533144	     -4.22691142	     60.94425258	      1.10217654	     33.53251502	      2.84510722	      8.59060805	      0.00000000	      0.00000000	     68.40177081	    -10.05194868	     84.54845747	      3.21104604	     85.43344802	      0.00000000	      0.00000000
      7.73500000	      6.86475131	     -2.53826760	    179.64981532	      0.36478278	      0.72021353	     -0.61993035	     63.53922603	     -4.17775038	      8.92780463	     74.22665437	      1.29549951	     27.62365494	      0.00000000	      0.00000000	     63.71236838	    -13.87493400	     -7.79591617	     77.20918941	      1.34755457	     19.42831939	      0.00000000	      0.00000000	    -64.91378058	     -1.48379568	     -4.24371575	     60.91941063	      1.11235992	     33.44630773	      2.85354893	      8.56601977	      0.00000000	      0.00000000	     68.44730631	    -10.03140175	     84.53744286	      3.22484459	     85.42208739	      0.00000000	      0.00000000
      7.74000000	      6.93375738	     -2.57267050	    179.63863305	      0.36431988	      0.72044232	     -0.62017530	     63.57093007	     -4.19633243	      8.92109929	     74.19829693	      1.29500458	     27.61719787	      0.00000000	      0.00000000	     63.70489678	    -13.91559190	     -7.88901031	     77.16773147	      1.34683099	     19.43541374	      0.00000000	      0.00000000	    -64.88357012	     -1.51568828	     -4.26870281	     60.89321250	      1.12897519	     33.38316957	      2.86082275	      8.55160339	      0.00000000	      0.00000000	     68.42914378	    -10.04678723	     84.53149401	      3.23009642	     85.41801408	      0.00000000	      0.00000000
      7.74500000	      6.91161389	     -2.53302551	    179.62349121	      0.36408834	      0.72081893	     -0.62002715	     63.48379573	     -4.20304922	      8.85767994	     74.12667294	      1.29375451	     27.59160079	      0.00000000	      0.00000000	     63.64874837	    -13.91564505	     -7.85288673	     77.13483029	      1.34625676	     19.44123133	      0.00000000	      0.00000000	    -64.93825550	     -1.47557753	     -4.24023493	     60.96707056	      1.11704434	     33.34528667	      2.87099947	      8.53954590	      0.00000000	      0.00000000	     68.43650421	    -10.03696902	     84.52941138	      3.24257047	     85.41375081	      0.00000000	      0.00000000
      7.75000000	      6.91728468	     -2.50914897	    179.64698164	      0.36369073	      0.72119529	     -0.62005126	     63.40562515	     -4.23308650	      8.78844680	     74.06011891	      1.29259292	     27.57790184	      0.00000000	      0.00000000	     63.59761812	    -13.87674762	     -7.78098910	     77.07444635	      1.34520286	     19.45430250	      0.00000000	      0.00000000	    -64.98902754	     -1.43887522	     -4.23252504	     60.99209323	      1.11376695	     33.28336630	      2.86233262	      8.51850077	      0.00000000	      0.00000000	     68.43471953	    -10.03708126	     84.52765463	      3.25244333	     85.41382518	      0.00000000	      0.00000000
      7.75500000	      6.91920333	     -2.51033577	    179.64369501	      0.36332635	      0.72146042	     -0.62011943	     63.35291108	     -4.23342061	      8.77799498	     74.02770430	      1.29202718	     27.58244859	      0.00000000	      0.00000000	     63.54186170	    -13.86271637	     -7.75940547	     77.03530898	      1.34451978	     19.47685619	      0.00000000	      0.00000000	    -65.02391134	     -1.43855653	     -4.23533957	     61.02471192	      1.11884689	     33.23351304	      2.84805114	      8.49671117	      0.00000000	      0.00000000	     68.42837082	    -10.03228685	     84.52929906	      3.25139244	     85.41251725	      0.00000000	      0.00000000
      7.76000000	      6.97068234	     -2.52528718	    179.63561096	      0.36288952	      0.72170173	     -0.62027328	     63.35250311	     -4.22862792	      8.77973559	     73.98122794	      1.29121601	     27.59171756	      0.00000000	      0.00000000	     63.52034220	    -13.89172759	     -7.82063217	     76.99279574	      1.34377779	     19.49569766	      0.00000000	      0.00000000	    -65.01644807	     -1.45834549	     -4.24394438	     61.02967194	      1.13534395	     33.19851266	      2.83599372	      8.47958131	      0.00000000	      0.00000000	     68.39280931	    -10.07246639	     84.54625713	      3.23650467	     85.43126325	      0.00000000	      0.00000000
      7.76500000	      7.00157957	     -2.52013084	    179.63564696	      0.36252094	      0.72203923	     -0.62019294	     63.32246477	     -4.25889867	      8.73108493	     73.92639503	      1.29025900	     27.58761495	      0.00000000	      0.00000000	     63.49086952	    -13.85893742	     -7.80757143	     76.94558533	      1.34295381	     19.51343903	      0.00000000	      0.00000000	    -65.03563103	     -1.44330317	     -4.24146582	     61.05899743	      1.13342314	     33.16820621	      2.82407456	      8.46216521	      0.00000000	      0.00000000	     68.39359924	    -10.06134893	     84.54903137	      3.25319162	     85.44511130	      0.00000000	      0.00000000
      7.77000000	      7.05396697	     -2.58297625	    179.64803973	      0.36203714	      0.72219030	     -0.62037808	     63.33240613	     -4.28187103	      8.80176194	     73.91461505	      1.29005340	     27.60543096	      0.00000000	      0.00000000	     63.48036459	    -13.81073678	     -7.82631398	     76.91394581	      1.34240160	     19.52957584	      0.00000000	      0.00000000	    -65.01739139	     -1.47801921	     -4.29188813	     61.02501764	      1.14764066	     33.12419835	      2.81108507	      8.44229148	      0.00000000	      0.00000000	     68.37485568	    -10.07225508	     84.54764661	      3.25630856	     85.46021605	      0.00000000	      0.00000000
      7.77500000	      7.09101307	     -2.57153705	    179.63688690	      0.36168651	      0.72253300	     -0.62023778	     63.30350535	     -4.28683085	      8.76771294	     73.84387302	      1.28881872	     27.60695245	      0.00000000	      0.00000000	     63.45009756	    -13.79321012	     -7.81903608	     76.85741652	      1.34141497	     19.54829195	      0.00000000	      0.00000000	    -65.03143863	     -1.45157057	     -4.26699001	     61.06170873	      1.12823565	     33.09341704	      2.80565078	      8.42457419	      0.00000000	      0.00000000	     68.38238994	    -10.02729745	     84.53268279	      3.27778678	     85.46526053	      0.00000000	      0.00000000
